<?xml version="1.0" encoding="UTF-8" standalone="no"?>
<svg width="112px" height="58px" viewBox="0 0 112 58" version="1.1" xmlns="http://www.w3.org/2000/svg" xmlns:xlink="http://www.w3.org/1999/xlink">
    <!-- Generator: Sketch 39.1 (31720) - http://www.bohemiancoding.com/sketch -->
    <title>Page 1</title>
    <desc>Created with Sketch.</desc>
    <defs></defs>
    <g id="Home" stroke="none" stroke-width="1" fill="none" fill-rule="evenodd">
        <g id="Page-1" fill="#221F20">
            <path d="M111.6428,57.3403 L88.7178,18.3673 C88.6108,18.1863 88.3478,18.1863 88.2408,18.3673 L77.5678,36.5113 L56.2078,0.1993 C56.0518,-0.0667 55.6678,-0.0667 55.5118,0.1993 L28.3678,46.3443 L17.6558,28.1343 C17.5748,27.9973 17.3778,27.9973 17.2968,28.1343 L0.0308,57.4863 C-0.0962,57.7013 0.1968,57.9163 0.3638,57.7303 L17.3878,38.9103 C17.4708,38.8193 17.6138,38.8193 17.6968,38.9113 L26.7858,49.0323 L21.9878,57.1893 C21.7418,57.6073 22.3098,58.0243 22.6358,57.6643 L55.6878,21.1223 C55.8488,20.9453 56.1278,20.9453 56.2878,21.1233 L89.0478,57.6023 C89.3728,57.9643 89.9428,57.5473 89.6958,57.1283 L80.4598,41.4273 L88.3618,32.6913 C88.4718,32.5703 88.6628,32.5703 88.7718,32.6923 L111.1988,57.6653 C111.4218,57.9133 111.8118,57.6273 111.6428,57.3403" id="Fill-1"></path>
        </g>
    </g>
</svg>